<mxfile host="app.diagrams.net" modified="2021-08-06T04:51:36.538Z" agent="5.0 (Windows NT 10.0; Win64; x64) AppleWebKit/537.36 (KHTML, like Gecko) Chrome/92.0.4515.107 Safari/537.36" etag="6jNG-WrKu_1VgqFNygI0" version="14.7.9" type="github">
  <diagram id="C5RBs43oDa-KdzZeNtuy" name="Page-1">
    <mxGraphModel dx="1038" dy="547" grid="1" gridSize="10" guides="1" tooltips="1" connect="1" arrows="1" fold="1" page="1" pageScale="1" pageWidth="827" pageHeight="1169" math="0" shadow="0">
      <root>
        <mxCell id="WIyWlLk6GJQsqaUBKTNV-0" />
        <mxCell id="WIyWlLk6GJQsqaUBKTNV-1" parent="WIyWlLk6GJQsqaUBKTNV-0" />
        <mxCell id="HJ8n1KOzFwiLZcirH3vF-1" value="" style="edgeStyle=orthogonalEdgeStyle;rounded=0;orthogonalLoop=1;jettySize=auto;html=1;" edge="1" parent="WIyWlLk6GJQsqaUBKTNV-1" source="WIyWlLk6GJQsqaUBKTNV-3" target="HJ8n1KOzFwiLZcirH3vF-0">
          <mxGeometry relative="1" as="geometry" />
        </mxCell>
        <mxCell id="WIyWlLk6GJQsqaUBKTNV-3" value="Draft assemblies" style="rounded=1;whiteSpace=wrap;html=1;fontSize=12;glass=0;strokeWidth=1;shadow=0;" parent="WIyWlLk6GJQsqaUBKTNV-1" vertex="1">
          <mxGeometry x="160" y="80" width="120" height="40" as="geometry" />
        </mxCell>
        <mxCell id="HJ8n1KOzFwiLZcirH3vF-3" value="" style="edgeStyle=orthogonalEdgeStyle;rounded=0;orthogonalLoop=1;jettySize=auto;html=1;" edge="1" parent="WIyWlLk6GJQsqaUBKTNV-1" source="HJ8n1KOzFwiLZcirH3vF-0" target="HJ8n1KOzFwiLZcirH3vF-2">
          <mxGeometry relative="1" as="geometry" />
        </mxCell>
        <mxCell id="HJ8n1KOzFwiLZcirH3vF-0" value="Genome Annotation&lt;br&gt;(Prokka)" style="rounded=1;whiteSpace=wrap;html=1;shadow=0;strokeWidth=1;glass=0;" vertex="1" parent="WIyWlLk6GJQsqaUBKTNV-1">
          <mxGeometry x="360" y="70" width="120" height="60" as="geometry" />
        </mxCell>
        <mxCell id="HJ8n1KOzFwiLZcirH3vF-5" value="" style="edgeStyle=orthogonalEdgeStyle;rounded=0;orthogonalLoop=1;jettySize=auto;html=1;" edge="1" parent="WIyWlLk6GJQsqaUBKTNV-1" source="HJ8n1KOzFwiLZcirH3vF-2" target="HJ8n1KOzFwiLZcirH3vF-4">
          <mxGeometry relative="1" as="geometry" />
        </mxCell>
        <mxCell id="HJ8n1KOzFwiLZcirH3vF-2" value="Input file&lt;br&gt;(.GFF3)" style="whiteSpace=wrap;html=1;rounded=1;shadow=0;strokeWidth=1;glass=0;" vertex="1" parent="WIyWlLk6GJQsqaUBKTNV-1">
          <mxGeometry x="560" y="70" width="120" height="60" as="geometry" />
        </mxCell>
        <mxCell id="HJ8n1KOzFwiLZcirH3vF-9" value="" style="edgeStyle=orthogonalEdgeStyle;rounded=0;orthogonalLoop=1;jettySize=auto;html=1;" edge="1" parent="WIyWlLk6GJQsqaUBKTNV-1" source="HJ8n1KOzFwiLZcirH3vF-4" target="HJ8n1KOzFwiLZcirH3vF-8">
          <mxGeometry relative="1" as="geometry" />
        </mxCell>
        <mxCell id="HJ8n1KOzFwiLZcirH3vF-4" value="CDS to Protein" style="shape=cylinder;whiteSpace=wrap;html=1;boundedLbl=1;backgroundOutline=1;rounded=1;shadow=0;strokeWidth=1;glass=0;" vertex="1" parent="WIyWlLk6GJQsqaUBKTNV-1">
          <mxGeometry x="590" y="200" width="60" height="80" as="geometry" />
        </mxCell>
        <mxCell id="HJ8n1KOzFwiLZcirH3vF-11" value="" style="edgeStyle=orthogonalEdgeStyle;rounded=0;orthogonalLoop=1;jettySize=auto;html=1;" edge="1" parent="WIyWlLk6GJQsqaUBKTNV-1" source="HJ8n1KOzFwiLZcirH3vF-8" target="HJ8n1KOzFwiLZcirH3vF-10">
          <mxGeometry relative="1" as="geometry" />
        </mxCell>
        <mxCell id="HJ8n1KOzFwiLZcirH3vF-8" value="QC&lt;br&gt;(filter)" style="rhombus;whiteSpace=wrap;html=1;" vertex="1" parent="WIyWlLk6GJQsqaUBKTNV-1">
          <mxGeometry x="390" y="200" width="80" height="80" as="geometry" />
        </mxCell>
        <mxCell id="HJ8n1KOzFwiLZcirH3vF-15" value="" style="edgeStyle=orthogonalEdgeStyle;rounded=0;orthogonalLoop=1;jettySize=auto;html=1;" edge="1" parent="WIyWlLk6GJQsqaUBKTNV-1" source="HJ8n1KOzFwiLZcirH3vF-10" target="HJ8n1KOzFwiLZcirH3vF-22">
          <mxGeometry relative="1" as="geometry">
            <Array as="points">
              <mxPoint x="220" y="310" />
              <mxPoint x="620" y="310" />
            </Array>
          </mxGeometry>
        </mxCell>
        <mxCell id="HJ8n1KOzFwiLZcirH3vF-27" value="" style="edgeStyle=orthogonalEdgeStyle;rounded=0;orthogonalLoop=1;jettySize=auto;html=1;" edge="1" parent="WIyWlLk6GJQsqaUBKTNV-1" source="HJ8n1KOzFwiLZcirH3vF-10" target="HJ8n1KOzFwiLZcirH3vF-14">
          <mxGeometry relative="1" as="geometry">
            <mxPoint x="60" y="240" as="targetPoint" />
          </mxGeometry>
        </mxCell>
        <mxCell id="HJ8n1KOzFwiLZcirH3vF-10" value="Pre-clustered&lt;br&gt;(CD-HIT)" style="whiteSpace=wrap;html=1;" vertex="1" parent="WIyWlLk6GJQsqaUBKTNV-1">
          <mxGeometry x="160" y="210" width="120" height="60" as="geometry" />
        </mxCell>
        <mxCell id="HJ8n1KOzFwiLZcirH3vF-21" value="" style="edgeStyle=orthogonalEdgeStyle;rounded=0;orthogonalLoop=1;jettySize=auto;html=1;" edge="1" parent="WIyWlLk6GJQsqaUBKTNV-1" source="HJ8n1KOzFwiLZcirH3vF-14" target="HJ8n1KOzFwiLZcirH3vF-20">
          <mxGeometry relative="1" as="geometry" />
        </mxCell>
        <mxCell id="HJ8n1KOzFwiLZcirH3vF-14" value="All-against-all comp. (BLASTP, SI 95% D)" style="whiteSpace=wrap;html=1;" vertex="1" parent="WIyWlLk6GJQsqaUBKTNV-1">
          <mxGeometry x="160" y="350" width="120" height="60" as="geometry" />
        </mxCell>
        <mxCell id="HJ8n1KOzFwiLZcirH3vF-23" value="" style="edgeStyle=orthogonalEdgeStyle;rounded=0;orthogonalLoop=1;jettySize=auto;html=1;" edge="1" parent="WIyWlLk6GJQsqaUBKTNV-1" source="HJ8n1KOzFwiLZcirH3vF-20" target="HJ8n1KOzFwiLZcirH3vF-22">
          <mxGeometry relative="1" as="geometry" />
        </mxCell>
        <mxCell id="HJ8n1KOzFwiLZcirH3vF-20" value="Sequence clustered&lt;br&gt;(MCL)" style="rounded=1;whiteSpace=wrap;html=1;" vertex="1" parent="WIyWlLk6GJQsqaUBKTNV-1">
          <mxGeometry x="360" y="350" width="120" height="60" as="geometry" />
        </mxCell>
        <mxCell id="HJ8n1KOzFwiLZcirH3vF-29" value="" style="edgeStyle=orthogonalEdgeStyle;rounded=0;orthogonalLoop=1;jettySize=auto;html=1;" edge="1" parent="WIyWlLk6GJQsqaUBKTNV-1" source="HJ8n1KOzFwiLZcirH3vF-22" target="HJ8n1KOzFwiLZcirH3vF-28">
          <mxGeometry relative="1" as="geometry" />
        </mxCell>
        <mxCell id="HJ8n1KOzFwiLZcirH3vF-22" value="Merge output&lt;br&gt;(CD-HIT + MCL)" style="whiteSpace=wrap;html=1;rounded=1;" vertex="1" parent="WIyWlLk6GJQsqaUBKTNV-1">
          <mxGeometry x="560" y="350" width="120" height="60" as="geometry" />
        </mxCell>
        <mxCell id="HJ8n1KOzFwiLZcirH3vF-31" value="" style="edgeStyle=orthogonalEdgeStyle;rounded=0;orthogonalLoop=1;jettySize=auto;html=1;" edge="1" parent="WIyWlLk6GJQsqaUBKTNV-1" source="HJ8n1KOzFwiLZcirH3vF-28" target="HJ8n1KOzFwiLZcirH3vF-30">
          <mxGeometry relative="1" as="geometry" />
        </mxCell>
        <mxCell id="HJ8n1KOzFwiLZcirH3vF-28" value="Build Phylogenetic Tree&lt;br&gt;(FastTree)" style="whiteSpace=wrap;html=1;rounded=1;" vertex="1" parent="WIyWlLk6GJQsqaUBKTNV-1">
          <mxGeometry x="540" y="490" width="160" height="60" as="geometry" />
        </mxCell>
        <mxCell id="HJ8n1KOzFwiLZcirH3vF-30" value="Data Visualization (roary_plot.py)" style="whiteSpace=wrap;html=1;rounded=1;" vertex="1" parent="WIyWlLk6GJQsqaUBKTNV-1">
          <mxGeometry x="320" y="490" width="120" height="60" as="geometry" />
        </mxCell>
      </root>
    </mxGraphModel>
  </diagram>
</mxfile>
